<svg xmlns="http://www.w3.org/2000/svg" viewBox="0 0 1389.36 1079.68">
  <g>
    <path d="M1082.64,1052.78q-89.73,45.26-181.91,14.81Q802.8,1036.32,732,934.25q-37.87-54.33-65-125.93l-26.34-70H446.4L402.77,842.07q-4.11,10.7-4.11,17.28a42,42,0,0,0,2.88,14.41q2.88,7.82,12.34,14a37.54,37.54,0,0,0,21,6.18h6.58v8.23H265.32v-8.23h7.41q18.93,0,37.45-11.11t30.87-33.33L524.6,430.53q-32.12-72.43-68.32-99.59-30.45-23.06-58-23.05a156.67,156.67,0,0,0-51.44,8.23l-1.64-8.23q59.25-30.45,113.58-30.45,67.5,0,121,52.67,52.68,51.86,93,149.8L792.09,774.57q67.5,167.1,138.28,229.64,28.8,25.51,59.26,35.39t51.44,9.88a167.54,167.54,0,0,0,40.75-4.93l.82,8.23ZM460.39,703H628.3L570.68,550.7q-4.11-11.54-11.53-31.69t-9.87-28.39ZM913.08,893.92a50,50,0,0,0,36.63-15.23,53,53,0,0,0,16-36.62v-456a53,53,0,0,0-16-36.63,50,50,0,0,0-36.63-15.23H902.39V326H1152.6l-.82,8.23h-9.88q-21.4,0-37.05,15.23t-15.62,36.63V866.76H1197q60.09,0,100.83-34.57t60.5-98h8.23l-37.86,167.91H902.39v-8.23Zm502.08,0a50,50,0,0,0,36.63-15.23,53,53,0,0,0,16-36.62V385.26a51.54,51.54,0,0,0-16-36.22,50.7,50.7,0,0,0-36.63-14.82h-10.71V326h250.23l-.83,8.23H1644a52.11,52.11,0,0,0-37,14.82q-15.63,14.82-15.64,36.22V842.07q0,21.39,15.64,36.62t37,15.23h9.87l.83,8.23H1404.45v-8.23Z" transform="translate(-265.32 -0.16)" fill="#fefefe"/>
    <path d="M342.35.16H1654.68V222.38H342.35Zm57.54,51v127h54.45q33.51,0,50.92-16.23t17.39-47.35q0-30.63-17.61-47t-50.7-16.38ZM365.74,199.72v-3.86c3.05-.75,5-1.72,6-3s1.4-3.33,1.4-6.39V43.82c0-3.12-.49-5.32-1.51-6.6s-2.95-2.27-5.9-3.12V30.55h79q30.36,0,47.15,4.4A75.78,75.78,0,0,1,521,49.62a68.53,68.53,0,0,1,20.09,27.66,98,98,0,0,1,7,37.64c0,13.92-2.32,26.59-7,37.92A69.84,69.84,0,0,1,521,180.66a75.48,75.48,0,0,1-29.15,14.66q-16.75,4.44-47.15,4.4ZM680,202.63q-41.57,0-68.63-24.92T584.25,115q0-37.62,26.92-62.46T680,27.66q41.88,0,68.79,24.86T775.66,115q0,37.77-27.06,62.73T680,202.63ZM611.65,115.2q0,29,18.74,46.61t49.89,17.62q30.38,0,49-17.78T748,115.2Q748,86.75,729.21,69T680,51.18q-30.71,0-49.51,17.77t-18.8,46.25ZM969.32,79.59a11,11,0,0,0,.7-2.31A11.23,11.23,0,0,0,970.3,75a7.17,7.17,0,0,0-2-4.84c-1.29-1.56-4.46-3.87-9.5-7a138.86,138.86,0,0,0-25.19-9.55,96.4,96.4,0,0,0-24-3.06q-31.74,0-51.13,17.88T839.15,115.2q0,29,19.59,46.61t51.57,17.62a84,84,0,0,0,41.4-11.07c13.21-7.41,19.82-13.21,19.82-17.5a9.33,9.33,0,0,0-.32-2.21,24.64,24.64,0,0,0-1.24-3.59l3-2.69,26.36,32.86-3.12,2.16a37.87,37.87,0,0,0-3.8-2.1,6.61,6.61,0,0,0-2.8-.7c-.75,0-2.79,1.24-6.17,3.7s-6.34,4.46-9,6.07a126.43,126.43,0,0,1-31.35,13.75A124.8,124.8,0,0,1,909,202.63q-43,0-70.13-24.71T811.75,115q0-37.62,26.91-62.46T907.4,27.66q31.35,0,66.6,15.89c5,2.31,8,3.44,9.13,3.44a4.89,4.89,0,0,0,2.63-.86,25.65,25.65,0,0,0,3.81-3.22l3.28,1.87L972.66,81.47l-3.34-1.88ZM1081.2,199.72v-3.86c3.06-.75,5-1.72,6-2.9s1.39-3.33,1.39-6.39V51.82h-54.34c-3.06,0-5.21.48-6.4,1.4s-2.2,3-3.06,6h-3.54V22.82h3.7c.91,3.17,2,5.21,3.28,6.23s3.38,1.5,6.29,1.5H1171c2.9,0,5-.48,6.28-1.5s2.42-3.06,3.44-6.23h3.55V59.23h-3.55c-.85-3.06-1.82-5-3-6s-3.27-1.4-6.44-1.4h-55.64V186.57c0,3.06.49,5.16,1.39,6.39s3,2.15,6,2.9v3.86Zm231.41,2.91q-41.58,0-68.64-24.92T1216.91,115q0-37.62,26.9-62.46t68.8-24.86q41.9,0,68.8,24.86t26.9,62.46q0,37.77-27.07,62.73t-68.63,24.92ZM1244.3,115.2q0,29,18.74,46.61t49.89,17.62q30.38,0,49-17.78t18.64-46.45q0-28.45-18.75-46.25t-49.24-17.77q-30.69,0-49.52,17.77T1244.3,115.2Zm304.45-84.65q33.18,0,51.39,12.89c12.19,8.65,18.27,20.63,18.27,36.09q0,17.25-10.2,29.11c-6.82,7.84-16.34,13.1-28.47,15.74,6.06,9.45,13.69,21.64,22.77,36.68q21.27,34.8,27.39,34.8h1.4v3.86h-45.12v-3.86h1.3a5.48,5.48,0,0,0,3.59-1,3.5,3.5,0,0,0,1.23-2.74,4.61,4.61,0,0,0-.91-2.2,8,8,0,0,1-.64-1l-39-62.35h-58.69v60c0,3.06.53,5.16,1.55,6.39s3.12,2.2,6.18,3.06v3.7H1458.9V196c2.95-.86,4.95-1.82,5.91-3s1.51-3.27,1.51-6.44V43.87c0-3.17-.49-5.37-1.51-6.6s-3-2.32-5.91-3.17V30.55Zm-7.35,23.53h-48.34v49.3H1543c17.29,0,30-2,38-6.07s12-10.36,12-19.07c0-8.48-4-14.6-11.87-18.42s-21.15-5.74-39.68-5.74Z" transform="translate(-265.32 -0.16)" fill="#fefefe" fill-rule="evenodd"/>
  </g>
</svg>
