<svg xmlns="http://www.w3.org/2000/svg" xmlns:xlink="http://www.w3.org/1999/xlink" viewBox="0 0 1917.73 749.8"><defs><clipPath id="a" transform="translate(-1.05 -128.91)"><path d="M1427.3,225.39c-112.11-54.87-213.94,1.15-213.94,1.15l.27.27c20.1,8,42.49,26,61.1,51,22.12,29.77,28.62,49.87,39.85,70,12.72,22.74,32.48,39.25,43.64,44.86,36.27,17.39,84.71,19.15,115.36-2.1-23.61-50.74-89.38-115.69-127.2-134.23l.88-1.76c-2.64-1.49,148.45,46.35,148.45,177.06,0,345.2-47.5,315.7-282.68,345.2h94.18l8.52,13.6,52.23-13.6,18.88,24.76,36-24.76,30.1-9.13c45.74-14.14,6.23,22.73-14.14,56.36l5.89,1.48c18.61-18.6,37.15-36.87,55.75-55.48,10,2.37,19.76,4.4,29.5,6.77L1555,814.9l3.86-1.49c-10.62-57,35.72-64.88,61.37-18.87,1.15,2.09,4.39,3.85,6.49,5l2.37-.88-.88-21.85L1660.12,796l14.14-20.1c49.86,17.39,44.59,12.11,96.21,0-235.18,0-247.57-121.24-244-342.83,1.76-114.75,93-146.34,92.36-145.73l.88,1.15c-26.53,17.11-69.62,71.38-82.62,111.23,24.77,13.26,60.76,7.64,86.14-8.87,7.64-5,21-18.87,28.34-37.14,6.77-15.9,9.75-31.26,23.62-55.48,11.5-20.37,26.52-36,40.73-43.64l.27-.27s-80.85-32.48-159.34,18.27c-59.61,38.36-47.77,80.85-45.47,111.84-13.53-62.79-14.14-125-84-159Z" fill="none"/></clipPath></defs><path d="M197.19,547.58c-1.49,4.13-3,8-4.4,12.11-2.64,7.38-5.28,15-8,22.4-2.64,7.1-5.62,14.48-8.26,21.85-2.36,6.23-4.73,12.38-7.1,18.61-1.76,5-3.86,9.74-5.89,14.48-3.85,8.25-9.13,15.9-17.11,20.09a49.15,49.15,0,0,1-19.15,6.23,43.91,43.91,0,0,1-21.52-3l-3.52-1.15L60,545.35l.88,131.87c.27,5.88.27,12.11.27,18,0,3.25.28,6.77.61,10.36a31.32,31.32,0,0,0,.61,5.88l1.49,8.87H55c-13.6,0-28.35-2.37-39.24-10.9C4.29,700.56,1.05,686.08,1.05,672.28V457.8l6.76-3.25L9,454.28c1.49-.27,3-.61,4.4-.88l.27-.27h.27a50,50,0,0,1,5.89-.61,77.82,77.82,0,0,1,8-.61,89.85,89.85,0,0,1,23.88,3.25,66.24,66.24,0,0,1,21.86,10.89,83.67,83.67,0,0,1,18.27,20.1c6.22,9.47,10.89,19.75,15,30.1v.61l.27.27c.27,1.49,1.15,3.52,1.49,5,1.48,3.52,2.63,7.11,4.12,10.62,1.49,4.74,3,9.14,4.74,13.6,1.76,5,3.25,10,5,15,2.09,5.89,4.12,12.11,6.49,18l21.52-62.85v-.28a170.46,170.46,0,0,1,15-30.1,79.24,79.24,0,0,1,18.27-20.1,67.94,67.94,0,0,1,21.51-10.89,93.43,93.43,0,0,1,23.88-3.25,67.5,67.5,0,0,1,8.26.61,31.37,31.37,0,0,1,5.61.61h.61l.27.27c1.49.27,3,.61,4.4.88l1.15.27,6.77,3.25-.88,219.82c0,5.89,0,11.77.27,17.73a60.91,60.91,0,0,0,.61,10.35,31.34,31.34,0,0,0,.61,5.89l1.49,8.86h-9.14c-13.26,0-27.74-2.37-38.63-10.89-11.77-8.87-15-23-15-37.15Z" transform="translate(-1.05 -128.91)" fill="#3fab35" fill-rule="evenodd"/><path d="M478,700.15c-3.24,6.23-8.25,10.62-14.48,13.87a41.78,41.78,0,0,1-18.87,5.28c-5.28.27-10.9.61-16.24.88-19.49.88-39.85.27-59-3.52-15.9-3.25-30.72-9.74-42.76-20.63-12.38-10.9-20.37-25.38-25.37-41-6.23-19.75-7.65-41.61-7.65-62.24V524c0-14.15,1.76-30.11,8.53-42.77a43.49,43.49,0,0,1,11.5-13.87,53.87,53.87,0,0,1,14.48-8.52c3.52-1.15,7.37-2.37,10.89-3.25a93.29,93.29,0,0,1,11.77-2.37h.27c5.28-.27,10.9-.88,16.24-.88,6.23-.27,12.11-.6,18-.6h32.14c10.62,0,22.12,0,32.75-.61,4.39-.27,8.52-.61,13-1.15h11.16v9.74c0,8-1.15,16.51-5.28,23.34A41.17,41.17,0,0,1,455.24,497H455l-.27.27a48,48,0,0,1-18.27,5,160.77,160.77,0,0,1-17.12.88H358a5.09,5.09,0,0,0-2.37.61h-.27L355,504h-.61a.26.26,0,0,1-.27.27v.27l-.27.27a1.82,1.82,0,0,0-.27,1.15,45.55,45.55,0,0,0-.27,5.89l.88,37.14h90v7.65c0,11.5-3.24,22.73-11.23,31.26-8.25,8.86-19.48,12.38-31.59,12.38h-47.5c0,10.35.61,21.24,3.25,31.26,1.76,8,5.27,16.23,10.89,22.12a41.53,41.53,0,0,0,20.09,11.5c10.36,3,21.52,3.86,32.14,3.86,12.11,0,24.49-.27,36.27-.88,5-.27,10.62-.27,15.36-.88l.61-.27h.6l10.36-1.76v11.5c-.07,8-1.29,16.65-5.42,23.41Z" transform="translate(-1.05 -128.91)" fill="#3fab35" fill-rule="evenodd"/><path d="M567.15,550.56h87.62l.61-50.48c0-13.6,3.25-28,14.14-37.14,10.89-8.86,25.64-11.23,39-11.23h8.86l-1.15,8.86c-.27,2.1-.61,4.13-.88,6.5-.27,3.24-.27,6.76-.27,10.35-.27,5.61-.27,11.5-.27,17.39l-.27,182.61v17.73c.27,3.51.27,6.76.61,10.35.27,2.09.27,4.12.61,5.88l1.49,8.87h-8.87c-13.59,0-28-2.37-39-10.9-11.23-8.86-14.48-23.34-14.48-37.14V602H567.29v93.23c.27,3.52.27,6.77.6,10.36.27,2.09.27,4.12.61,5.88l1.49,8.86h-8.86c-13.6,0-28.35-2.36-39.24-10.89-11.24-8.86-14.75-23.34-14.75-37.14l.88-172c0-13.6,3.24-28,14.14-37.15,10.62-8.86,25.37-11.23,39-11.23H570l-1.49,8.86c-.27,2.1-.27,4.13-.61,6.5-.27,3.25-.27,6.77-.6,10.35v72.94Z" transform="translate(-1.05 -128.91)" fill="#3fab35" fill-rule="evenodd"/><path d="M834.2,616.05a58.56,58.56,0,0,1-6.76-1.15c-3-.61-5.89-.88-8.87-1.49h-.27c-.88-.27-1.49-.27-2.37-.61v64.62c0,5.89,0,11.77.27,17.73,0,3.51.27,6.76.61,10.35a31.32,31.32,0,0,0,.61,5.88l1.49,8.87h-9.13c-13.27,0-28-2.37-39-10.9-11.23-8.86-14.47-23.34-14.47-37.14V518.08c0-11.23,1.75-22.73,7.1-32.75a59.52,59.52,0,0,1,19.49-21.51,81,81,0,0,1,28.34-11.23,211.8,211.8,0,0,1,33.63-4.4,145.39,145.39,0,0,1,25.37.88,138.33,138.33,0,0,1,26.86,6.22A139.91,139.91,0,0,1,922.5,466.8,87.25,87.25,0,0,1,944,484.52a79,79,0,0,1,15,24.22c3.86,9.75,5,20.37,4.74,31-.88,15.63-5.62,29.77-15.36,42.49-7.1,9.14-16.24,15.9-26.25,21l2.64,2.64a70.34,70.34,0,0,1,11.5,16.84c3.25,6.77,6.49,13.26,9.47,20.1,3,7.1,6.23,14.14,9.74,21.24h0a83.54,83.54,0,0,0,8.26,14.14c2.64,3.86,5.61,7.65,8.52,11.51h0a59.27,59.27,0,0,0,8.26,9.13l5.61,5.28-5.61,5.61a39,39,0,0,1-8.87,6.77l-.27.27h-.27a74.92,74.92,0,0,1-10.89,3.52,54.92,54.92,0,0,1-15.63,0,52.18,52.18,0,0,1-18.88-5.89,61.86,61.86,0,0,1-16.5-14.14c-6.23-7.1-11.51-15.36-16.24-23.34-6.77-11.5-13-23.34-19.15-34.85-3-5.88-7.1-11.5-12.38-15a62.07,62.07,0,0,0-19.15-8.52l-.27-.27h-.27c-.88-.27-2.1-.61-3-.88a33.45,33.45,0,0,1-4.6-1.29Zm-18.27-50.13c3.52.61,7.11,1.15,10.9,1.76,5,.88,10.35,1.48,15.63,2.09a143.8,143.8,0,0,0,16.23.88c10.63,0,22.74-1.49,31.87-7.64,8-5.62,11.23-15,12.38-24.5.61-6.49,0-13-3.25-18.6a33.5,33.5,0,0,0-12.11-12.72c-5.88-3.52-12.72-5.62-19.48-7.11A78.81,78.81,0,0,0,846,498.93c-5.27.61-11.23,1.49-16.23,3.52a28.35,28.35,0,0,0-8.87,5,15.4,15.4,0,0,0-4.13,5.61,24.8,24.8,0,0,0-1.15,6.77v12.72c0,5,0,10.35.28,15.63v14.75c.06,1.22.06,2.1.06,3Z" transform="translate(-1.05 -128.91)" fill="#3fab35" fill-rule="evenodd"/><path d="M1013,677.15V499.81c0-13.87,3.25-28,14.48-37.14,11.24-8.53,25.65-10.89,39.25-10.89h8.86l-1.49,8.86c-.27,2.1-.27,4.13-.61,5.89-.27,3.51-.27,7.1-.61,10.35V494.6L1072,671.94c0,13.87-3.24,28-14.48,37.14-10.62,8.87-25.1,11.23-38.63,11.23h-8.86l1.49-8.86a39.5,39.5,0,0,0,.6-5.88c.28-3.25.28-6.77.28-10.36,0-6,.27-11.9.6-18.06Z" transform="translate(-1.05 -128.91)" fill="#3fab35" fill-rule="evenodd"/><path d="M1302.47,501.57a25.54,25.54,0,0,1-13,3.25,36,36,0,0,1-12.38-2.1c-3-1.15-6.23-2.37-9.47-3.52-3.86-1.15-7.65-2.36-11.78-3.24-5-1.15-10.89-1.15-16.51-1.15a65.17,65.17,0,0,0-24.76,5,67.6,67.6,0,0,0-22.12,15.9,85.57,85.57,0,0,0-15.9,28.35c-4.4,13.26-5.89,27.74-5.89,41.88,0,13.87,1.49,28.62,5.89,41.88,3.85,10.36,8.86,20.1,16.23,28.35a58.44,58.44,0,0,0,21.86,15.9,60.76,60.76,0,0,0,24.76,5.28c7.11,0,15-.61,21.86-3,4.12-1.48,8.25-3.85,10.89-7.37a26.59,26.59,0,0,0,5.61-11.77,99.43,99.43,0,0,0,1.49-18.27V619a28,28,0,0,0-.61-7.1c-.27-.27-.27-.61-.6-.61l-.61-.27-.27-.27c-.61-.27-1.76-.27-2.64-.61H1258.9c-12.11,0-23.34-3.25-31.6-12.11-8-8.87-10.89-19.76-10.89-31.6v-7.65h57.85c10.35,0,21,1.49,30.71,5.89a42.06,42.06,0,0,1,20.37,16.24,66.82,66.82,0,0,1,9.74,23.34,138.57,138.57,0,0,1,2.37,26.86v14.75c0,10.89-1.76,21.86-6.22,31.87a69.75,69.75,0,0,1-19.15,25.1c-9.14,7.38-20.1,12.38-31,15.63-13.6,4.13-27.74,5.62-41.61,5.62a138.53,138.53,0,0,1-49-8.87A133.14,133.14,0,0,1,1148,688.65c-13-12.11-22.73-26.86-29.77-43.37-8-18.61-10.89-39.24-10.89-59.34,0-20.36,3-40.73,10.89-59.6,7.11-16.24,16.85-31.26,29.77-43.37a126.17,126.17,0,0,1,42.49-26.26,145.92,145.92,0,0,1,49-8.52c10,0,20.09.88,29.5,3.86a106.7,106.7,0,0,1,21.85,8.86,77.91,77.91,0,0,1,15,10.62,39.71,39.71,0,0,1,8.26,9.47l2.64,4.13-2.64,4.13c-1.15,1.49-2.1,3-3.25,4.4-.88,1.15-2.1,2.36-3,3.51a21,21,0,0,1-5.41,4.4Z" transform="translate(-1.05 -128.91)" fill="#3fab35" fill-rule="evenodd"/><path d="M1373.58,677.15V499.81c0-13.87,3.25-28,14.75-37.14,10.89-8.53,25.64-10.89,39-10.89h9.14l-1.49,8.86a50,50,0,0,0-.61,5.89c-.27,3.51-.61,7.1-.61,10.35-.27,5.88-.27,11.77-.27,17.72l-.61,177.34c0,13.87-3.25,28-14.48,37.14-10.89,8.87-25.37,11.23-38.63,11.23h-9.14l1.49-8.86c.27-1.76.61-3.86.88-5.88.27-3.25.27-6.77.27-10.36.07-6,.07-11.9.34-18.06Z" transform="translate(-1.05 -128.91)" fill="#3fab35" fill-rule="evenodd"/><path d="M1683.39,675.39l.61-.27a70.73,70.73,0,0,0,15.63,2.1,60.48,60.48,0,0,0,24.76-5.28c8.53-3.52,15.63-9.14,21.86-15.9,7.37-8,12.38-18,16.24-28,4.39-13.26,5.88-27.74,5.88-41.61,0-14.14-1.49-28.62-5.88-41.88-3.86-10.36-8.87-20.37-16.24-28.62-6.23-6.77-13.26-12.72-21.86-16.24a61.49,61.49,0,0,0-49.86,0c-8.53,3.52-15.63,9.47-21.86,16.24-7.37,8.25-12.38,18.26-15.9,28.62-4.12,11.5-5.88,24.49-6.22,36.87h0v4.13c0,14.14,1.49,28.89,6.22,42.22,3.52,10.35,8.53,20.09,15.9,28.35,6.23,7.1,13.27,12.72,21.86,16.23,3,.95,5.88,2.17,8.86,3ZM1699.63,724a140,140,0,0,1-49.26-8.87,164.47,164.47,0,0,1-19.75-9.47h.27a120.32,120.32,0,0,1-23-17.39,121.81,121.81,0,0,1-29.5-43.37,146.75,146.75,0,0,1-7.1-21.51h0a156.24,156.24,0,0,1-4.13-37.15v-.88c0-18.6,2.64-37.48,9.48-54.87h.27a19.58,19.58,0,0,1,1.49-3.86c6.76-16.23,16.5-31.25,29.49-43.37a122.86,122.86,0,0,1,42.49-26.52,140.22,140.22,0,0,1,49.26-8.86,138.75,138.75,0,0,1,49,8.86,123.42,123.42,0,0,1,42.49,26.52c13,12.12,22.73,27.14,29.77,43.37,8,18.88,10.89,39.25,10.89,59.61,0,20.1-3,40.39-10.89,59.34-7.11,16.24-16.85,31-29.77,43.1a131.45,131.45,0,0,1-42.49,26.52,138.75,138.75,0,0,1-49,8.8Z" transform="translate(-1.05 -128.91)" fill="#3fab35" fill-rule="evenodd"/><g clip-path="url(#a)"><polygon points="1701.49 0 1704.2 23.61 1151.22 82.95 1148.85 59.34 1701.49 0" fill="#a2c621" fill-rule="evenodd"/></g><g clip-path="url(#a)"><polygon points="1703.86 22.46 1704.47 26.25 1151.56 85.59 1151.22 81.46 1703.86 22.46" fill="#a0c522" fill-rule="evenodd"/></g><g clip-path="url(#a)"><polygon points="1704.2 25.1 1704.74 28.96 1151.83 88.23 1151.56 84.1 1704.2 25.1" fill="#9dc422" fill-rule="evenodd"/></g><g clip-path="url(#a)"><polygon points="1704.47 27.74 1705.08 31.6 1152.1 90.87 1151.83 86.74 1704.47 27.74" fill="#9bc323" fill-rule="evenodd"/></g><g clip-path="url(#a)"><polygon points="1704.74 30.11 1705.35 34.24 1152.44 93.23 1152.1 89.44 1704.74 30.11" fill="#98c223" fill-rule="evenodd"/></g><g clip-path="url(#a)"><polygon points="1705.08 32.75 1705.62 36.87 1152.71 95.87 1152.44 92.08 1705.08 32.75" fill="#96c123" fill-rule="evenodd"/></g><g clip-path="url(#a)"><polygon points="1705.35 35.39 1705.96 39.58 1152.98 98.58 1152.71 94.72 1705.35 35.39" fill="#94c122" fill-rule="evenodd"/></g><g clip-path="url(#a)"><polygon points="1705.62 38.09 1706.23 42.22 1153.32 101.22 1152.98 97.36 1705.62 38.09" fill="#92c022" fill-rule="evenodd"/></g><g clip-path="url(#a)"><polygon points="1705.96 40.73 1706.57 44.86 1153.59 103.86 1153.32 100.07 1705.96 40.73" fill="#90bf22" fill-rule="evenodd"/></g><g clip-path="url(#a)"><polygon points="1706.23 43.37 1706.57 47.5 1153.86 106.5 1153.59 102.71 1706.23 43.37" fill="#8ebf22" fill-rule="evenodd"/></g><g clip-path="url(#a)"><polygon points="1706.57 46.01 1706.84 50.2 1154.2 109.2 1153.86 105.34 1706.57 46.01" fill="#8cbe23" fill-rule="evenodd"/></g><g clip-path="url(#a)"><polygon points="1706.84 48.72 1707.11 52.84 1154.47 111.84 1154.2 107.98 1706.84 48.72" fill="#8abe24" fill-rule="evenodd"/></g><g clip-path="url(#a)"><polygon points="1707.11 51.35 1707.45 55.48 1154.74 114.48 1154.47 110.69 1707.11 51.35" fill="#88bd24" fill-rule="evenodd"/></g><g clip-path="url(#a)"><polygon points="1707.45 53.99 1707.72 57.85 1155.08 117.12 1154.47 113.33 1707.45 53.99" fill="#86bc25" fill-rule="evenodd"/></g><g clip-path="url(#a)"><polygon points="1707.72 56.63 1707.99 60.49 1155.35 119.82 1154.74 115.97 1707.72 56.63" fill="#84bc26" fill-rule="evenodd"/></g><g clip-path="url(#a)"><polygon points="1707.99 59.34 1708.33 63.13 1155.69 122.46 1155.08 118.61 1707.99 59.34" fill="#82bb26" fill-rule="evenodd"/></g><g clip-path="url(#a)"><polygon points="1708.33 61.98 1708.6 65.83 1155.96 125.1 1155.35 120.97 1708.33 61.98" fill="#80ba27" fill-rule="evenodd"/></g><g clip-path="url(#a)"><polygon points="1708.6 64.61 1708.87 68.47 1156.23 127.74 1155.69 123.61 1708.6 64.61" fill="#7eba28" fill-rule="evenodd"/></g><g clip-path="url(#a)"><polygon points="1708.87 67.25 1709.21 71.11 1156.57 130.45 1155.96 126.32 1708.87 67.25" fill="#7cb928" fill-rule="evenodd"/></g><g clip-path="url(#a)"><polygon points="1709.21 69.96 1709.48 73.75 1156.84 133.09 1156.23 128.96 1709.21 69.96" fill="#7ab929" fill-rule="evenodd"/></g><g clip-path="url(#a)"><polygon points="1709.48 72.6 1709.82 76.45 1157.11 135.72 1156.57 131.6 1709.48 72.6" fill="#78b82a" fill-rule="evenodd"/></g><g clip-path="url(#a)"><polygon points="1709.82 75.24 1710.09 79.09 1157.45 138.36 1156.84 134.24 1709.82 75.24" fill="#77b82a" fill-rule="evenodd"/></g><g clip-path="url(#a)"><polygon points="1709.82 77.88 1710.36 81.73 1157.72 141.07 1157.11 136.94 1709.82 77.88" fill="#74b72b" fill-rule="evenodd"/></g><g clip-path="url(#a)"><polygon points="1710.09 80.58 1710.69 84.37 1157.99 143.71 1157.45 139.58 1710.09 80.58" fill="#72b62b" fill-rule="evenodd"/></g><g clip-path="url(#a)"><polygon points="1710.36 83.22 1710.97 87.08 1157.99 146.35 1157.72 142.22 1710.36 83.22" fill="#71b62c" fill-rule="evenodd"/></g><g clip-path="url(#a)"><polygon points="1710.69 85.59 1711.24 89.72 1158.33 148.72 1157.99 144.86 1710.69 85.59" fill="#6fb52c" fill-rule="evenodd"/></g><g clip-path="url(#a)"><polygon points="1710.97 88.23 1711.58 92.36 1158.6 151.35 1158.33 147.56 1710.97 88.23" fill="#6db52d" fill-rule="evenodd"/></g><g clip-path="url(#a)"><polygon points="1711.24 90.87 1711.85 94.99 1158.93 154.06 1158.6 150.2 1711.24 90.87" fill="#6ab42d" fill-rule="evenodd"/></g><g clip-path="url(#a)"><polygon points="1711.58 93.57 1712.12 97.7 1159.2 156.7 1158.93 152.84 1711.58 93.57" fill="#69b42d" fill-rule="evenodd"/></g><g clip-path="url(#a)"><polygon points="1711.85 96.21 1712.45 100.34 1159.48 159.34 1159.2 155.48 1711.85 96.21" fill="#68b42e" fill-rule="evenodd"/></g><g clip-path="url(#a)"><polygon points="1712.12 98.85 1712.72 102.98 1159.81 161.98 1159.48 158.19 1712.12 98.85" fill="#65b32e" fill-rule="evenodd"/></g><g clip-path="url(#a)"><polygon points="1712.45 101.49 1712.99 105.62 1160.09 164.68 1159.81 160.83 1712.45 101.49" fill="#64b32f" fill-rule="evenodd"/></g><g clip-path="url(#a)"><polygon points="1712.72 104.19 1713.33 108.32 1160.36 167.32 1160.09 163.47 1712.72 104.19" fill="#62b22f" fill-rule="evenodd"/></g><g clip-path="url(#a)"><polygon points="1712.99 106.83 1713.33 110.96 1160.69 169.96 1160.36 166.1 1712.99 106.83" fill="#60b22f" fill-rule="evenodd"/></g><g clip-path="url(#a)"><polygon points="1713.33 109.47 1713.6 113.33 1160.96 172.6 1160.69 168.81 1713.33 109.47" fill="#5eb130" fill-rule="evenodd"/></g><g clip-path="url(#a)"><polygon points="1713.6 112.11 1713.94 115.97 1161.23 175.31 1160.96 171.45 1713.6 112.11" fill="#5db130" fill-rule="evenodd"/></g><g clip-path="url(#a)"><polygon points="1713.94 114.82 1714.21 118.61 1161.57 177.94 1161.23 174.09 1713.94 114.82" fill="#5bb030" fill-rule="evenodd"/></g><g clip-path="url(#a)"><polygon points="1714.21 117.46 1714.48 121.31 1161.84 180.58 1161.23 176.46 1714.21 117.46" fill="#59b031" fill-rule="evenodd"/></g><g clip-path="url(#a)"><polygon points="1714.48 120.09 1714.82 123.95 1162.18 183.22 1161.57 179.09 1714.48 120.09" fill="#57b031" fill-rule="evenodd"/></g><g clip-path="url(#a)"><polygon points="1714.82 122.73 1715.09 126.59 1162.45 185.93 1161.84 181.8 1714.82 122.73" fill="#55af31" fill-rule="evenodd"/></g><g clip-path="url(#a)"><polygon points="1715.09 125.44 1715.36 129.23 1162.72 188.57 1162.18 184.44 1715.09 125.44" fill="#54af32" fill-rule="evenodd"/></g><g clip-path="url(#a)"><polygon points="1715.36 128.08 1715.7 131.94 1163.06 191.21 1162.45 187.08 1715.36 128.08" fill="#52ae32" fill-rule="evenodd"/></g><g clip-path="url(#a)"><polygon points="1715.7 130.72 1715.97 134.57 1163.33 193.84 1162.72 189.72 1715.7 130.72" fill="#4fae32" fill-rule="evenodd"/></g><g clip-path="url(#a)"><polygon points="1715.97 133.36 1716.24 137.21 1163.6 196.55 1163.06 192.42 1715.97 133.36" fill="#4fae33" fill-rule="evenodd"/></g><g clip-path="url(#a)"><polygon points="1716.24 136.06 1716.58 139.85 1163.94 199.19 1163.33 195.06 1716.24 136.06" fill="#4dad33" fill-rule="evenodd"/></g><g clip-path="url(#a)"><polygon points="1716.58 138.7 1716.85 142.49 1164.21 201.83 1163.6 197.7 1716.58 138.7" fill="#4cad33" fill-rule="evenodd"/></g><g clip-path="url(#a)"><polygon points="1716.58 141.07 1717.19 145.2 1164.48 204.19 1163.94 200.34 1716.58 141.07" fill="#4aad33" fill-rule="evenodd"/></g><g clip-path="url(#a)"><polygon points="1716.85 143.71 1717.46 147.84 1164.82 206.83 1164.21 202.98 1716.85 143.71" fill="#49ad33" fill-rule="evenodd"/></g><g clip-path="url(#a)"><polygon points="1717.19 146.35 1717.73 150.47 1164.82 209.47 1164.48 205.68 1717.19 146.35" fill="#47ac34" fill-rule="evenodd"/></g><g clip-path="url(#a)"><polygon points="1717.46 148.99 1718.07 153.11 1165.09 212.18 1164.82 208.32 1717.46 148.99" fill="#47ac34" fill-rule="evenodd"/></g><g clip-path="url(#a)"><polygon points="1717.73 151.69 1718.34 155.82 1165.36 214.82 1165.09 210.96 1717.73 151.69" fill="#45ac34" fill-rule="evenodd"/></g><g clip-path="url(#a)"><polygon points="1718.07 154.33 1718.61 158.46 1165.7 217.46 1165.36 213.6 1718.07 154.33" fill="#44ac34" fill-rule="evenodd"/></g><g clip-path="url(#a)"><polygon points="1718.34 156.97 1718.95 161.1 1165.97 220.09 1165.7 216.31 1718.34 156.97" fill="#45ac34" fill-rule="evenodd"/></g><g clip-path="url(#a)"><polygon points="1718.61 159.61 1719.22 163.74 1166.31 222.8 1165.97 218.94 1718.61 159.61" fill="#45ac34" fill-rule="evenodd"/></g><g clip-path="url(#a)"><polygon points="1718.95 162.31 1719.49 166.44 1166.58 225.44 1166.31 221.58 1718.95 162.31" fill="#45ac34" fill-rule="evenodd"/></g><g clip-path="url(#a)"><polygon points="1719.22 164.95 1719.83 168.81 1166.85 228.08 1166.58 224.22 1719.22 164.95" fill="#45ac34" fill-rule="evenodd"/></g><g clip-path="url(#a)"><polygon points="1719.49 167.59 1720.1 171.45 1167.19 230.72 1166.85 226.93 1719.49 167.59" fill="#46ac34" fill-rule="evenodd"/></g><g clip-path="url(#a)"><polygon points="1719.83 170.23 1720.1 174.09 1167.46 233.42 1167.19 229.57 1719.83 170.23" fill="#47ac34" fill-rule="evenodd"/></g><g clip-path="url(#a)"><polygon points="1720.1 172.94 1720.44 176.73 1167.73 236.06 1167.46 231.94 1720.1 172.94" fill="#47ac34" fill-rule="evenodd"/></g><g clip-path="url(#a)"><polygon points="1720.44 175.57 1720.71 179.43 1168.07 238.7 1167.73 234.57 1720.44 175.57" fill="#47ac34" fill-rule="evenodd"/></g><g clip-path="url(#a)"><polygon points="1720.71 178.21 1720.98 182.07 1168.34 241.34 1168.07 237.21 1720.71 178.21" fill="#47ac34" fill-rule="evenodd"/></g><g clip-path="url(#a)"><polygon points="1720.98 180.85 1721.32 184.71 1168.61 244.05 1168.07 239.92 1720.98 180.85" fill="#48ac34" fill-rule="evenodd"/></g><g clip-path="url(#a)"><polygon points="1721.32 183.56 1721.59 187.35 1168.95 246.69 1168.34 242.56 1721.32 183.56" fill="#48ac33" fill-rule="evenodd"/></g><g clip-path="url(#a)"><polygon points="1721.59 186.2 1721.86 190.06 1169.22 249.32 1168.61 245.2 1721.59 186.2" fill="#48ac33" fill-rule="evenodd"/></g><g clip-path="url(#a)"><polygon points="1721.86 188.84 1722.2 192.69 1169.56 251.96 1168.95 247.84 1721.86 188.84" fill="#48ac33" fill-rule="evenodd"/></g><g clip-path="url(#a)"><polygon points="1722.2 191.47 1722.47 195.33 1169.83 254.67 1169.22 250.54 1722.2 191.47" fill="#49ac33" fill-rule="evenodd"/></g><g clip-path="url(#a)"><polygon points="1722.47 194.18 1722.74 197.97 1170.1 257.31 1169.56 253.18 1722.47 194.18" fill="#4aad33" fill-rule="evenodd"/></g><g clip-path="url(#a)"><polygon points="1722.74 196.55 1723.08 200.68 1170.44 259.68 1169.83 255.82 1722.74 196.55" fill="#4bad33" fill-rule="evenodd"/></g><g clip-path="url(#a)"><polygon points="1723.08 199.19 1723.35 203.32 1170.71 262.31 1170.1 258.46 1723.08 199.19" fill="#4bad33" fill-rule="evenodd"/></g><g clip-path="url(#a)"><polygon points="1723.35 201.83 1723.62 205.96 1170.98 264.95 1170.44 261.17 1723.35 201.83" fill="#4cad33" fill-rule="evenodd"/></g><g clip-path="url(#a)"><polygon points="1723.35 204.47 1723.96 208.59 1171.32 267.66 1170.71 263.8 1723.35 204.47" fill="#4cad33" fill-rule="evenodd"/></g><g clip-path="url(#a)"><polygon points="1723.62 207.17 1724.23 211.3 1171.59 270.3 1170.98 266.44 1723.62 207.17" fill="#4cad33" fill-rule="evenodd"/></g><g clip-path="url(#a)"><polygon points="1723.96 209.81 1724.57 213.94 1171.59 272.94 1171.32 269.08 1723.96 209.81" fill="#4dad33" fill-rule="evenodd"/></g><g clip-path="url(#a)"><polygon points="1724.23 212.45 1724.84 216.58 1171.86 275.58 1171.59 271.79 1724.23 212.45" fill="#4dad33" fill-rule="evenodd"/></g><g clip-path="url(#a)"><polygon points="1724.57 215.09 1725.11 219.22 1172.2 278.28 1171.86 274.43 1724.57 215.09" fill="#4eae33" fill-rule="evenodd"/></g><g clip-path="url(#a)"><polygon points="1724.84 217.79 1725.44 221.92 1172.47 280.92 1172.2 277.06 1724.84 217.79" fill="#4eae33" fill-rule="evenodd"/></g><g clip-path="url(#a)"><polygon points="1725.11 220.43 1725.71 224.56 1172.8 283.56 1172.47 279.7 1725.11 220.43" fill="#4fae32" fill-rule="evenodd"/></g><g clip-path="url(#a)"><polygon points="1725.44 223.07 1725.99 226.93 1173.08 286.2 1172.8 282.41 1725.44 223.07" fill="#50ae32" fill-rule="evenodd"/></g><g clip-path="url(#a)"><polygon points="1725.71 225.71 1726.32 229.57 1173.35 288.9 1173.08 285.05 1725.71 225.71" fill="#50ae32" fill-rule="evenodd"/></g><g clip-path="url(#a)"><polygon points="1725.99 228.42 1726.6 232.21 1173.68 291.54 1173.35 287.69 1725.99 228.42" fill="#50ae32" fill-rule="evenodd"/></g><g clip-path="url(#a)"><polygon points="1726.32 231.06 1726.87 234.84 1173.95 294.18 1173.68 290.06 1726.32 231.06" fill="#51ae32" fill-rule="evenodd"/></g><g clip-path="url(#a)"><polygon points="1726.6 233.69 1726.87 237.55 1174.22 296.82 1173.95 292.69 1726.6 233.69" fill="#52ae32" fill-rule="evenodd"/></g><g clip-path="url(#a)"><polygon points="1726.87 236.33 1727.2 240.19 1174.56 299.53 1174.22 295.33 1726.87 236.33" fill="#53af32" fill-rule="evenodd"/></g><g clip-path="url(#a)"><polygon points="1727.2 239.04 1727.47 242.83 1174.83 302.17 1174.56 298.04 1727.2 239.04" fill="#53af32" fill-rule="evenodd"/></g><g clip-path="url(#a)"><polygon points="1727.47 241.68 1727.81 245.47 1175.11 304.81 1174.83 300.68 1727.47 241.68" fill="#54af32" fill-rule="evenodd"/></g><g clip-path="url(#a)"><polygon points="1727.81 244.32 1728.08 248.17 1175.44 307.44 1174.83 303.32 1727.81 244.32" fill="#55af32" fill-rule="evenodd"/></g><g clip-path="url(#a)"><polygon points="1728.08 246.96 1728.35 250.81 1175.71 310.15 1175.11 305.95 1728.08 246.96" fill="#55af31" fill-rule="evenodd"/></g><g clip-path="url(#a)"><polygon points="1728.35 249.66 1728.69 253.45 1175.98 312.79 1175.44 308.66 1728.35 249.66" fill="#56af31" fill-rule="evenodd"/></g><g clip-path="url(#a)"><polygon points="1728.69 252.3 1728.96 256.09 1176.32 315.43 1175.71 311.3 1728.69 252.3" fill="#56af31" fill-rule="evenodd"/></g><g clip-path="url(#a)"><polygon points="1728.96 254.67 1729.23 258.8 1176.59 317.8 1175.98 313.94 1728.96 254.67" fill="#57b031" fill-rule="evenodd"/></g><g clip-path="url(#a)"><polygon points="1729.23 257.31 1729.57 261.44 1176.93 320.43 1176.32 316.58 1729.23 257.31" fill="#58b031" fill-rule="evenodd"/></g><g clip-path="url(#a)"><polygon points="1729.57 259.95 1729.84 264.07 1177.2 323.07 1176.59 319.28 1729.57 259.95" fill="#59b031" fill-rule="evenodd"/></g><g clip-path="url(#a)"><polygon points="1729.84 262.58 1730.11 266.71 1177.47 325.78 1176.93 321.92 1729.84 262.58" fill="#5ab031" fill-rule="evenodd"/></g><g clip-path="url(#a)"><polygon points="1730.11 265.29 1730.45 269.42 1177.81 328.42 1177.2 324.56 1730.11 265.29" fill="#5ab031" fill-rule="evenodd"/></g><g clip-path="url(#a)"><polygon points="1730.11 267.93 1730.72 272.06 1178.08 331.06 1177.47 327.2 1730.11 267.93" fill="#5ab031" fill-rule="evenodd"/></g><g clip-path="url(#a)"><polygon points="1730.45 270.57 1731.06 274.7 1178.35 333.69 1177.81 329.91 1730.45 270.57" fill="#5cb130" fill-rule="evenodd"/></g><g clip-path="url(#a)"><polygon points="1730.72 273.21 1731.33 277.33 1178.35 336.4 1178.08 332.55 1730.72 273.21" fill="#5cb130" fill-rule="evenodd"/></g><g clip-path="url(#a)"><polygon points="1731.06 275.91 1731.6 280.04 1178.69 339.04 1178.35 335.18 1731.06 275.91" fill="#5db130" fill-rule="evenodd"/></g><g clip-path="url(#a)"><polygon points="1731.33 278.55 1731.94 282.41 1178.96 341.68 1178.69 337.82 1731.33 278.55" fill="#5db130" fill-rule="evenodd"/></g><g clip-path="url(#a)"><polygon points="1731.6 281.19 1732.21 285.05 1179.23 344.32 1178.96 340.53 1731.6 281.19" fill="#5eb130" fill-rule="evenodd"/></g><g clip-path="url(#a)"><polygon points="1731.94 283.83 1732.48 287.69 1179.57 347.02 1179.23 343.17 1731.94 283.83" fill="#5eb130" fill-rule="evenodd"/></g><g clip-path="url(#a)"><polygon points="1732.21 286.54 1732.82 290.33 1179.84 349.66 1179.57 345.54 1732.21 286.54" fill="#5eb130" fill-rule="evenodd"/></g><g clip-path="url(#a)"><polygon points="1732.48 289.18 1733.09 293.03 1180.18 352.3 1179.84 348.17 1732.48 289.18" fill="#60b22f" fill-rule="evenodd"/></g><g clip-path="url(#a)"><polygon points="1732.82 291.81 1733.36 295.67 1180.45 354.94 1180.18 350.81 1732.82 291.81" fill="#62b22f" fill-rule="evenodd"/></g><g clip-path="url(#a)"><polygon points="1733.09 294.45 1733.7 298.31 1180.72 357.65 1180.45 353.52 1733.09 294.45" fill="#64b32f" fill-rule="evenodd"/></g><g clip-path="url(#a)"><polygon points="1733.36 297.16 1733.7 300.95 1181.06 360.29 1180.72 356.16 1733.36 297.16" fill="#66b32e" fill-rule="evenodd"/></g><g clip-path="url(#a)"><polygon points="1733.7 299.8 1733.97 303.65 1181.33 362.92 1181.06 358.8 1733.7 299.8" fill="#68b42e" fill-rule="evenodd"/></g><g clip-path="url(#a)"><polygon points="1733.97 302.44 1734.24 306.29 1181.6 365.56 1181.33 361.44 1733.97 302.44" fill="#6ab42d" fill-rule="evenodd"/></g><g clip-path="url(#a)"><polygon points="1734.24 305.07 1734.58 308.93 1181.94 368.27 1181.6 364.14 1734.24 305.07" fill="#6cb22d" fill-rule="evenodd"/></g><g clip-path="url(#a)"><polygon points="1734.58 307.78 1734.85 311.57 1182.21 370.91 1181.94 366.78 1734.58 307.78" fill="#6fb12d" fill-rule="evenodd"/></g><g clip-path="url(#a)"><polygon points="1734.85 310.15 1735.19 314.28 1182.48 373.28 1181.94 369.42 1734.85 310.15" fill="#72b02c" fill-rule="evenodd"/></g><g clip-path="url(#a)"><polygon points="1735.19 312.79 1735.46 316.92 1182.82 375.91 1182.21 372.06 1735.19 312.79" fill="#76ad2c" fill-rule="evenodd"/></g><g clip-path="url(#a)"><polygon points="1735.46 315.43 1735.73 319.55 1183.09 378.55 1182.48 374.76 1735.46 315.43" fill="#78ac2b" fill-rule="evenodd"/></g><g clip-path="url(#a)"><polygon points="1735.73 318.07 1736.07 322.19 1183.36 381.26 1182.82 377.4 1735.73 318.07" fill="#7aab2b" fill-rule="evenodd"/></g><g clip-path="url(#a)"><polygon points="1736.07 320.77 1736.34 324.9 1183.7 383.9 1183.09 380.04 1736.07 320.77" fill="#7ea92a" fill-rule="evenodd"/></g><g clip-path="url(#a)"><polygon points="1736.34 323.41 1736.61 327.54 1183.97 386.54 1183.36 382.68 1736.34 323.41" fill="#81a82a" fill-rule="evenodd"/></g><g clip-path="url(#a)"><polygon points="1736.61 326.05 1736.95 330.18 1184.31 389.18 1183.7 385.39 1736.61 326.05" fill="#84a72a" fill-rule="evenodd"/></g><g clip-path="url(#a)"><polygon points="1736.95 328.69 1737.22 332.82 1184.58 391.88 1183.97 388.03 1736.95 328.69" fill="#87a52d" fill-rule="evenodd"/></g><g clip-path="url(#a)"><polygon points="1736.95 331.39 1737.49 335.52 1184.85 394.52 1184.31 390.66 1736.95 331.39" fill="#8ba42f" fill-rule="evenodd"/></g><g clip-path="url(#a)"><polygon points="1737.22 334.03 1737.83 337.82 1185.19 397.16 1184.58 393.3 1737.22 334.03" fill="#8ea231" fill-rule="evenodd"/></g><g clip-path="url(#a)"><polygon points="1737.49 336.67 1738.1 340.53 1185.19 399.8 1184.85 396.01 1737.49 336.67" fill="#90a133" fill-rule="evenodd"/></g><g clip-path="url(#a)"><polygon points="1737.83 339.31 1738.43 343.17 1185.46 402.5 1185.19 398.65 1737.83 339.31" fill="#94a034" fill-rule="evenodd"/></g><g clip-path="url(#a)"><polygon points="1738.1 342.02 1738.71 345.81 1185.73 405.14 1185.46 401.02 1738.1 342.02" fill="#969e36" fill-rule="evenodd"/></g><g clip-path="url(#a)"><polygon points="1738.43 344.66 1738.98 348.44 1186.07 407.78 1185.73 403.65 1738.43 344.66" fill="#999d38" fill-rule="evenodd"/></g><g clip-path="url(#a)"><polygon points="1738.71 347.3 1739.32 351.15 1186.34 410.42 1186.07 406.29 1738.71 347.3" fill="#9b9c3a" fill-rule="evenodd"/></g><g clip-path="url(#a)"><polygon points="1738.98 349.93 1739.59 353.79 1186.61 413.13 1186.34 408.93 1738.98 349.93" fill="#9e9a3c" fill-rule="evenodd"/></g><g clip-path="url(#a)"><polygon points="1739.32 352.64 1739.86 356.43 1186.94 415.77 1186.61 411.64 1739.32 352.64" fill="#a19a40" fill-rule="evenodd"/></g><g clip-path="url(#a)"><polygon points="1739.59 355.28 1740.19 359.07 1187.22 418.4 1186.94 414.28 1739.59 355.28" fill="#a49842" fill-rule="evenodd"/></g><g clip-path="url(#a)"><polygon points="1739.86 357.92 1740.46 361.77 1187.55 421.04 1187.22 416.92 1739.86 357.92" fill="#a79644" fill-rule="evenodd"/></g><g clip-path="url(#a)"><polygon points="1740.19 360.56 1740.46 364.41 1187.83 423.75 1187.55 419.56 1740.19 360.56" fill="#aa9546" fill-rule="evenodd"/></g><g clip-path="url(#a)"><polygon points="1740.46 363.26 1740.74 367.05 1188.1 426.39 1187.83 422.26 1740.46 363.26" fill="#ae9348" fill-rule="evenodd"/></g><g clip-path="url(#a)"><polygon points="1740.74 365.56 1741.07 369.69 1188.43 428.76 1188.1 424.9 1740.74 365.56" fill="#b1924a" fill-rule="evenodd"/></g><g clip-path="url(#a)"><polygon points="1741.07 368.27 1741.35 372.4 1188.7 431.39 1188.43 427.54 1741.07 368.27" fill="#b2924d" fill-rule="evenodd"/></g><g clip-path="url(#a)"><polygon points="1741.35 370.91 1741.62 375.04 1188.97 434.03 1188.7 430.18 1741.35 370.91" fill="#b6904f" fill-rule="evenodd"/></g><g clip-path="url(#a)"><polygon points="1741.62 373.55 1741.95 377.67 1189.31 436.67 1188.7 432.88 1741.62 373.55" fill="#b98e50" fill-rule="evenodd"/></g><g clip-path="url(#a)"><polygon points="1741.95 376.19 1742.22 380.31 1189.58 439.38 1188.97 435.52 1741.95 376.19" fill="#bb8d52" fill-rule="evenodd"/></g><g clip-path="url(#a)"><polygon points="1742.22 378.89 1742.56 383.02 1189.86 442.02 1189.31 438.16 1742.22 378.89" fill="#be8c55" fill-rule="evenodd"/></g><g clip-path="url(#a)"><polygon points="1742.56 381.53 1742.83 385.66 1190.19 444.66 1189.58 440.8 1742.56 381.53" fill="#c28a57" fill-rule="evenodd"/></g><g clip-path="url(#a)"><polygon points="1742.83 384.17 1743.1 388.3 1190.46 447.3 1189.86 443.51 1742.83 384.17" fill="#c48a59" fill-rule="evenodd"/></g><g clip-path="url(#a)"><polygon points="1743.1 386.81 1743.44 390.94 1190.8 450 1190.19 446.14 1743.1 386.81" fill="#c48a58" fill-rule="evenodd"/></g><g clip-path="url(#a)"><polygon points="1743.44 389.51 1743.71 393.3 1191.07 452.64 1190.46 448.78 1743.44 389.51" fill="#c48a57" fill-rule="evenodd"/></g><g clip-path="url(#a)"><polygon points="1743.71 392.15 1743.98 396.01 1191.34 455.28 1190.8 451.42 1743.71 392.15" fill="#c38956" fill-rule="evenodd"/></g><g clip-path="url(#a)"><polygon points="1743.98 394.79 1744.32 398.65 1191.68 457.92 1191.07 454.13 1743.98 394.79" fill="#c38956" fill-rule="evenodd"/></g><g clip-path="url(#a)"><polygon points="1743.98 397.43 1744.59 401.29 1191.95 460.62 1191.34 456.5 1743.98 397.43" fill="#c38955" fill-rule="evenodd"/></g><g clip-path="url(#a)"><polygon points="1744.32 400.14 1744.86 403.93 1191.95 463.26 1191.68 459.13 1744.32 400.14" fill="#c38954" fill-rule="evenodd"/></g><g clip-path="url(#a)"><polygon points="1744.59 402.77 1745.2 406.63 1192.22 465.9 1191.95 461.77 1744.59 402.77" fill="#c38952" fill-rule="evenodd"/></g><g clip-path="url(#a)"><polygon points="1744.86 405.41 1745.47 409.27 1192.56 468.54 1192.22 464.41 1744.86 405.41" fill="#c28852" fill-rule="evenodd"/></g><g clip-path="url(#a)"><polygon points="1745.2 408.05 1745.81 411.91 1192.83 471.25 1192.56 467.12 1745.2 408.05" fill="#c28851" fill-rule="evenodd"/></g><g clip-path="url(#a)"><polygon points="1745.47 410.76 1746.08 414.55 1193.1 473.88 1192.83 469.76 1745.47 410.76" fill="#c18750" fill-rule="evenodd"/></g><g clip-path="url(#a)"><polygon points="1745.81 413.4 1746.35 417.25 1193.44 476.52 1193.1 472.4 1745.81 413.4" fill="#c1874f" fill-rule="evenodd"/></g><g clip-path="url(#a)"><polygon points="1746.08 416.04 1746.69 419.89 1193.71 479.16 1193.44 475.04 1746.08 416.04" fill="#c0874f" fill-rule="evenodd"/></g><g clip-path="url(#a)"><polygon points="1746.35 418.68 1746.96 422.53 1193.98 481.87 1193.71 477.74 1746.35 418.68" fill="#c0874e" fill-rule="evenodd"/></g><g clip-path="url(#a)"><polygon points="1746.69 421.04 1747.23 425.17 1194.32 484.24 1193.98 480.38 1746.69 421.04" fill="#c0874d" fill-rule="evenodd"/></g><g clip-path="url(#a)"><polygon points="1746.96 423.75 1747.23 427.88 1194.59 486.88 1194.32 483.02 1746.96 423.75" fill="#c0874c" fill-rule="evenodd"/></g><g clip-path="url(#a)"><polygon points="1747.23 426.39 1747.57 430.52 1194.93 489.51 1194.59 485.66 1747.23 426.39" fill="#c0864c" fill-rule="evenodd"/></g><g clip-path="url(#a)"><polygon points="1747.57 429.03 1747.84 433.15 1195.2 492.15 1194.93 488.36 1747.57 429.03" fill="#bf864b" fill-rule="evenodd"/></g><g clip-path="url(#a)"><polygon points="1747.84 431.67 1748.11 435.79 1195.47 494.86 1195.2 491 1747.84 431.67" fill="#bf864a" fill-rule="evenodd"/></g><g clip-path="url(#a)"><polygon points="1748.11 434.37 1748.45 438.5 1195.81 497.5 1195.47 493.64 1748.11 434.37" fill="#bf8649" fill-rule="evenodd"/></g><g clip-path="url(#a)"><polygon points="1748.45 437.01 1748.72 441.14 1196.08 500.14 1195.47 496.28 1748.45 437.01" fill="#bf8649" fill-rule="evenodd"/></g><g clip-path="url(#a)"><polygon points="1748.72 439.65 1749.06 443.78 1196.35 502.77 1195.81 498.99 1748.72 439.65" fill="#bf8648" fill-rule="evenodd"/></g><g clip-path="url(#a)"><polygon points="1749.06 442.29 1749.33 446.42 1196.69 505.48 1196.08 501.63 1749.06 442.29" fill="#be8647" fill-rule="evenodd"/></g><g clip-path="url(#a)"><polygon points="1749.33 444.99 1749.6 448.78 1196.96 508.12 1196.35 504.26 1749.33 444.99" fill="#be8546" fill-rule="evenodd"/></g><g clip-path="url(#a)"><polygon points="1749.6 447.63 1749.94 451.42 1197.23 510.76 1196.69 506.9 1749.6 447.63" fill="#be8546" fill-rule="evenodd"/></g><g clip-path="url(#a)"><polygon points="1749.94 450.27 1750.21 454.13 1197.57 513.4 1196.96 509.61 1749.94 450.27" fill="#be8546" fill-rule="evenodd"/></g><g clip-path="url(#a)"><polygon points="1750.21 452.91 1750.48 456.77 1197.84 516.1 1197.23 511.91 1750.21 452.91" fill="#be8544" fill-rule="evenodd"/></g><g clip-path="url(#a)"><polygon points="1750.48 455.62 1750.82 459.41 1198.18 518.74 1197.57 514.62 1750.48 455.62" fill="#bd8543" fill-rule="evenodd"/></g><g clip-path="url(#a)"><polygon points="1750.82 458.26 1751.09 462.05 1198.45 521.38 1197.84 517.25 1750.82 458.26" fill="#bd8543" fill-rule="evenodd"/></g><g clip-path="url(#a)"><polygon points="1750.82 460.89 1751.36 464.75 1198.72 524.02 1198.18 519.89 1750.82 460.89" fill="#bd8543" fill-rule="evenodd"/></g><g clip-path="url(#a)"><polygon points="1751.09 463.53 1751.7 467.39 1198.72 526.73 1198.45 522.53 1751.09 463.53" fill="#bd8442" fill-rule="evenodd"/></g><g clip-path="url(#a)"><polygon points="1751.36 466.24 1751.97 470.03 1199.06 529.37 1198.72 525.24 1751.36 466.24" fill="#bd8441" fill-rule="evenodd"/></g><g clip-path="url(#a)"><polygon points="1751.7 468.88 1752.24 472.67 1199.33 532 1199.06 527.88 1751.7 468.88" fill="#bc8440" fill-rule="evenodd"/></g><g clip-path="url(#a)"><polygon points="1751.97 471.52 1752.58 475.37 1199.6 534.64 1199.33 530.52 1751.97 471.52" fill="#bc8440" fill-rule="evenodd"/></g><g clip-path="url(#a)"><polygon points="1752.24 474.16 1752.85 478.01 1199.94 537.35 1199.6 533.15 1752.24 474.16" fill="#bc843f" fill-rule="evenodd"/></g><g clip-path="url(#a)"><polygon points="1752.58 476.86 1753.18 480.65 1200.21 539.65 1199.94 535.86 1752.58 476.86" fill="#bc843e" fill-rule="evenodd"/></g><g clip-path="url(#a)"><polygon points="1752.85 479.16 1753.46 483.29 1200.48 542.36 1200.21 538.5 1752.85 479.16" fill="#bc833c" fill-rule="evenodd"/></g><g clip-path="url(#a)"><polygon points="1753.18 481.87 1753.73 486 1200.82 545 1200.48 541.14 1753.18 481.87" fill="#bb833c" fill-rule="evenodd"/></g><g clip-path="url(#a)"><polygon points="1753.46 484.51 1754.07 488.63 1201.09 547.63 1200.82 543.78 1753.46 484.51" fill="#bb833b" fill-rule="evenodd"/></g><g clip-path="url(#a)"><polygon points="1753.73 487.15 1754.07 491.27 1201.42 550.27 1201.09 546.48 1753.73 487.15" fill="#bb833a" fill-rule="evenodd"/></g><g clip-path="url(#a)"><polygon points="1754.07 489.79 1754.34 493.91 1201.69 552.98 1201.42 549.12 1754.07 489.79" fill="#bb8339" fill-rule="evenodd"/></g><g clip-path="url(#a)"><polygon points="1754.34 492.49 1754.61 496.62 1201.97 555.62 1201.69 551.76 1754.34 492.49" fill="#bb8339" fill-rule="evenodd"/></g><g clip-path="url(#a)"><polygon points="1754.61 495.13 1754.94 499.26 1202.3 558.26 1201.97 554.4 1754.61 495.13" fill="#ba8338" fill-rule="evenodd"/></g><g clip-path="url(#a)"><polygon points="1754.94 497.77 1755.21 501.9 1202.57 560.89 1202.3 557.11 1754.94 497.77" fill="#ba8237" fill-rule="evenodd"/></g><g clip-path="url(#a)"><polygon points="1755.21 500.41 1755.48 504.54 1202.85 563.6 1202.3 559.74 1755.21 500.41" fill="#ba8236" fill-rule="evenodd"/></g><g clip-path="url(#a)"><polygon points="1755.48 503.11 1755.82 506.9 1203.18 566.24 1202.57 562.38 1755.48 503.11" fill="#ba8236" fill-rule="evenodd"/></g><g clip-path="url(#a)"><polygon points="1755.82 505.75 1756.09 509.61 1203.45 568.88 1202.85 565.02 1755.82 505.75" fill="#ba8234" fill-rule="evenodd"/></g><g clip-path="url(#a)"><polygon points="1756.09 508.39 1756.43 512.25 1203.72 571.52 1203.18 567.73 1756.09 508.39" fill="#b98233" fill-rule="evenodd"/></g><g clip-path="url(#a)"><polygon points="1756.43 511.03 1756.7 514.89 1204.06 574.22 1203.45 570.1 1756.43 511.03" fill="#b98232" fill-rule="evenodd"/></g><g clip-path="url(#a)"><polygon points="1756.7 513.74 1756.97 517.52 1204.33 576.86 1203.72 572.74 1756.7 513.74" fill="#b98132" fill-rule="evenodd"/></g><g clip-path="url(#a)"><polygon points="1756.97 516.38 1757.31 520.23 1204.6 579.5 1204.06 575.37 1756.97 516.38" fill="#b98131" fill-rule="evenodd"/></g><g clip-path="url(#a)"><polygon points="1757.31 519.01 1757.58 522.87 1204.94 582.14 1204.33 578.01 1757.31 519.01" fill="#b98130" fill-rule="evenodd"/></g><g clip-path="url(#a)"><polygon points="1757.58 521.65 1757.85 525.51 1205.21 584.85 1204.6 580.72 1757.58 521.65" fill="#b8812f" fill-rule="evenodd"/></g><g clip-path="url(#a)"><polygon points="1757.58 524.36 1758.19 528.15 1205.55 587.49 1204.94 583.36 1757.58 524.36" fill="#b8812f" fill-rule="evenodd"/></g><g clip-path="url(#a)"><polygon points="1757.85 527 1758.46 530.85 1205.55 590.12 1205.21 586 1757.85 527" fill="#b8812e" fill-rule="evenodd"/></g><g clip-path="url(#a)"><polygon points="1758.19 529.64 1758.73 533.49 1205.82 592.76 1205.55 588.63 1758.19 529.64" fill="#b8812d" fill-rule="evenodd"/></g><g clip-path="url(#a)"><polygon points="1758.46 532.27 1759.07 536.13 1206.09 595.47 1205.82 591.34 1758.46 532.27" fill="#b7802c" fill-rule="evenodd"/></g><g clip-path="url(#a)"><polygon points="1758.73 534.64 1759.34 538.77 1206.43 597.84 1206.09 593.98 1758.73 534.64" fill="#b7802c" fill-rule="evenodd"/></g><g clip-path="url(#a)"><polygon points="1759.07 537.35 1759.68 541.48 1206.7 600.48 1206.43 596.62 1759.07 537.35" fill="#b7802a" fill-rule="evenodd"/></g><g clip-path="url(#a)"><polygon points="1759.34 539.99 1759.95 544.12 1206.97 603.11 1206.7 599.26 1759.34 539.99" fill="#b78029" fill-rule="evenodd"/></g><g clip-path="url(#a)"><polygon points="1759.68 542.63 1760.22 546.75 1207.31 605.75 1206.97 601.96 1759.68 542.63" fill="#b78029" fill-rule="evenodd"/></g><g clip-path="url(#a)"><polygon points="1759.95 545.26 1760.56 549.39 1207.58 608.46 1207.31 604.6 1759.95 545.26" fill="#b68028" fill-rule="evenodd"/></g><g clip-path="url(#a)"><polygon points="1760.22 547.9 1760.83 552.1 1207.85 611.1 1207.58 607.24 1760.22 547.9" fill="#b67f28" fill-rule="evenodd"/></g><g clip-path="url(#a)"><polygon points="1760.56 550.61 1760.83 554.74 1208.19 613.74 1207.85 609.88 1760.56 550.61" fill="#b67f27" fill-rule="evenodd"/></g><g clip-path="url(#a)"><polygon points="1760.83 553.25 1761.1 557.38 1208.46 616.38 1208.19 612.59 1760.83 553.25" fill="#b67f27" fill-rule="evenodd"/></g><g clip-path="url(#a)"><polygon points="1761.1 555.89 1761.44 560.01 1208.8 619.08 1208.46 615.23 1761.1 555.89" fill="#b67f26" fill-rule="evenodd"/></g><g clip-path="url(#a)"><polygon points="1761.44 558.53 1761.71 562.38 1209.07 621.72 1208.8 617.86 1761.44 558.53" fill="#b57f26" fill-rule="evenodd"/></g><g clip-path="url(#a)"><polygon points="1761.71 561.23 1761.98 565.02 1209.34 624.36 1209.07 620.5 1761.71 561.23" fill="#b57f25" fill-rule="evenodd"/></g><g clip-path="url(#a)"><polygon points="1761.98 563.87 1762.32 567.73 1209.68 627 1209.07 623.21 1761.98 563.87" fill="#b57f25" fill-rule="evenodd"/></g><g clip-path="url(#a)"><polygon points="1762.32 566.51 1762.59 570.37 1209.95 629.64 1209.34 625.51 1762.32 566.51" fill="#b57e24" fill-rule="evenodd"/></g><g clip-path="url(#a)"><polygon points="1762.59 569.15 1762.86 573.01 1210.22 632.34 1209.68 628.22 1762.59 569.15" fill="#b57e24" fill-rule="evenodd"/></g><g clip-path="url(#a)"><polygon points="1762.86 571.86 1763.2 575.64 1210.56 634.98 1209.95 630.85 1762.86 571.86" fill="#b47e23" fill-rule="evenodd"/></g><g clip-path="url(#a)"><polygon points="1763.2 574.49 1763.47 578.35 1210.83 637.62 1210.22 633.49 1763.2 574.49" fill="#b47e22" fill-rule="evenodd"/></g><g clip-path="url(#a)"><polygon points="1763.47 577.13 1763.81 580.99 1211.1 640.26 1210.56 636.13 1763.47 577.13" fill="#b47e21" fill-rule="evenodd"/></g><g clip-path="url(#a)"><polygon points="1763.81 579.77 1764.08 583.63 1211.44 642.97 1210.83 638.84 1763.81 579.77" fill="#b47e21" fill-rule="evenodd"/></g><g clip-path="url(#a)"><polygon points="1764.08 582.48 1764.35 586.27 1211.71 645.6 1211.1 641.48 1764.08 582.48" fill="#b47d20" fill-rule="evenodd"/></g><g clip-path="url(#a)"><polygon points="1764.35 585.12 1764.69 588.97 1212.05 648.24 1211.44 644.12 1764.35 585.12" fill="#b37d1f" fill-rule="evenodd"/></g><g clip-path="url(#a)"><polygon points="1764.35 587.75 1764.96 591.61 1212.32 650.88 1211.71 646.75 1764.35 587.75" fill="#b37d1e" fill-rule="evenodd"/></g><g clip-path="url(#a)"><polygon points="1764.69 590.12 1765.23 594.25 1212.59 653.25 1212.05 649.46 1764.69 590.12" fill="#b37d1e" fill-rule="evenodd"/></g><g clip-path="url(#a)"><polygon points="1764.96 592.76 1765.57 596.89 1212.59 655.96 1212.32 652.1 1764.96 592.76" fill="#b37d1d" fill-rule="evenodd"/></g><g clip-path="url(#a)"><polygon points="1765.23 595.47 1765.84 599.6 1212.93 658.6 1212.59 654.74 1765.23 595.47" fill="#b37d1c" fill-rule="evenodd"/></g><g clip-path="url(#a)"><polygon points="1765.57 598.11 1766.11 602.24 1213.2 661.23 1212.93 657.38 1765.57 598.11" fill="#b27d1b" fill-rule="evenodd"/></g><g clip-path="url(#a)"><polygon points="1765.84 600.75 1766.45 604.87 1213.47 663.87 1213.2 660.08 1765.84 600.75" fill="#b27c1b" fill-rule="evenodd"/></g><g clip-path="url(#a)"><polygon points="1766.11 603.38 1766.72 607.51 1213.81 666.58 1213.47 662.72 1766.11 603.38" fill="#b27c1a" fill-rule="evenodd"/></g><g clip-path="url(#a)"><polygon points="1766.45 606.09 1767.06 610.22 1214.08 669.22 1213.81 665.36 1766.45 606.09" fill="#b27c19" fill-rule="evenodd"/></g><g clip-path="url(#a)"><polygon points="1766.72 608.73 1767.33 612.86 1214.35 671.86 1214.08 668 1766.72 608.73" fill="#b27c18" fill-rule="evenodd"/></g><g clip-path="url(#a)"><polygon points="1767.06 611.37 1767.6 615.5 1214.69 674.5 1214.35 670.71 1767.06 611.37" fill="#b17c18" fill-rule="evenodd"/></g><g clip-path="url(#a)"><polygon points="1767.33 614.01 1767.6 617.86 1214.96 677.2 1214.69 673.34 1767.33 614.01" fill="#b17c17" fill-rule="evenodd"/></g><g clip-path="url(#a)"><polygon points="1767.6 616.71 1767.93 620.5 1215.23 679.84 1214.96 675.98 1767.6 616.71" fill="#b17b16" fill-rule="evenodd"/></g><g clip-path="url(#a)"><polygon points="1767.93 619.35 1768.2 623.21 1215.57 682.48 1215.23 678.62 1767.93 619.35" fill="#b17b14" fill-rule="evenodd"/></g><g clip-path="url(#a)"><polygon points="1768.2 621.99 1768.48 625.85 1215.84 685.12 1215.57 680.99 1768.2 621.99" fill="#b17b13" fill-rule="evenodd"/></g><g clip-path="url(#a)"><polygon points="1768.48 624.63 1768.81 628.49 1216.17 687.82 1215.84 683.7 1768.48 624.63" fill="#b07b13" fill-rule="evenodd"/></g><g clip-path="url(#a)"><polygon points="1768.81 627.34 1769.09 631.13 1216.44 690.46 1215.84 686.34 1768.81 627.34" fill="#b07b12" fill-rule="evenodd"/></g><g clip-path="url(#a)"><polygon points="1769.09 629.98 1769.36 633.83 1216.71 693.1 1216.17 688.97 1769.09 629.98" fill="#b07b12" fill-rule="evenodd"/></g><g clip-path="url(#a)"><polygon points="1769.36 632.61 1769.69 636.47 1217.05 695.74 1216.44 691.61 1769.36 632.61" fill="#b07b12" fill-rule="evenodd"/></g><g clip-path="url(#a)"><polygon points="1769.69 635.25 1769.96 639.11 1217.32 698.45 1216.71 694.32 1769.69 635.25" fill="#b07a12" fill-rule="evenodd"/></g><g clip-path="url(#a)"><polygon points="1769.96 637.96 1770.3 641.75 1217.6 701.09 1217.05 696.96 1769.96 637.96" fill="#af7a12" fill-rule="evenodd"/></g><g clip-path="url(#a)"><polygon points="1770.3 640.6 1770.57 644.45 1217.93 703.72 1217.32 699.6 1770.3 640.6" fill="#af7a12" fill-rule="evenodd"/></g><g clip-path="url(#a)"><polygon points="1770.57 643.24 1770.84 647.09 1218.2 706.36 1217.6 702.24 1770.57 643.24" fill="#af7a12" fill-rule="evenodd"/></g><g clip-path="url(#a)"><polygon points="1770.84 645.6 1771.18 649.73 1218.47 708.73 1217.93 704.94 1770.84 645.6" fill="#af7a12" fill-rule="evenodd"/></g><g clip-path="url(#a)"><polygon points="1771.18 648.24 1771.45 652.37 1218.81 711.37 1218.2 707.58 1771.18 648.24" fill="#ae7a12" fill-rule="evenodd"/></g><g clip-path="url(#a)"><polygon points="1771.18 650.88 1771.72 655.08 1219.08 714.08 1218.47 710.22 1771.18 650.88" fill="#ae7913" fill-rule="evenodd"/></g><g clip-path="url(#a)"><polygon points="1771.45 653.59 1772.06 657.72 1219.42 716.71 1218.81 712.86 1771.45 653.59" fill="#ae7913" fill-rule="evenodd"/></g><g clip-path="url(#a)"><polygon points="1771.72 656.23 1772.33 660.35 1219.42 719.35 1219.08 715.56 1771.72 656.23" fill="#ae7913" fill-rule="evenodd"/></g><g clip-path="url(#a)"><polygon points="1772.06 658.87 1772.6 662.99 1219.69 721.99 1219.42 718.2 1772.06 658.87" fill="#ae7913" fill-rule="evenodd"/></g><g clip-path="url(#a)"><polygon points="1772.33 661.5 1772.94 665.7 1219.96 724.7 1219.69 720.84 1772.33 661.5" fill="#ad7a12" fill-rule="evenodd"/></g><g clip-path="url(#a)"><polygon points="1772.6 664.21 1772.6 662.72 1219.69 721.72 1219.96 723.48 1772.6 664.21" fill="#ad7a12" fill-rule="evenodd"/></g><path d="M1870.13,367a49.76,49.76,0,0,1,23.88,6.22,44.56,44.56,0,0,1,18.27,18,49.35,49.35,0,0,1,6.5,24.49,47.69,47.69,0,0,1-6.5,24.23,44.51,44.51,0,0,1-18,18.26,48.39,48.39,0,0,1-48.45,0,45.24,45.24,0,0,1-18.27-18.26,50.43,50.43,0,0,1-6.49-24.23c0-8.59,2.37-16.51,6.76-24.49a43.51,43.51,0,0,1,18.27-18,50.94,50.94,0,0,1,24-6.22Zm0,8a42,42,0,0,0-20.09,5.28,39.37,39.37,0,0,0-15.36,15,41.91,41.91,0,0,0,0,40.73,36.48,36.48,0,0,0,15,15,42.16,42.16,0,0,0,20.36,5.35A41.58,41.58,0,0,0,1905.52,436a42.15,42.15,0,0,0,5.34-20.36,39.13,39.13,0,0,0-5.61-20.37,36.54,36.54,0,0,0-15-15,41.91,41.91,0,0,0-20.1-5.28Zm-21.51,67.59V390.34h18c6.23,0,10.63.27,13.6,1.49a12.28,12.28,0,0,1,6.5,5,12.73,12.73,0,0,1,2.64,7.64,14.49,14.49,0,0,1-4.13,10,18.14,18.14,0,0,1-10.89,4.73,27.72,27.72,0,0,1,4.39,2.64,53.79,53.79,0,0,1,7.65,10.62l6.49,10h-10.35l-4.73-8.26c-3.52-6.49-6.77-10.35-8.87-12.11-1.49-1.15-3.85-1.76-6.76-1.76h-5v22.13h-8.52Zm8.59-29.5h10.35c5,0,8.25-.6,10-2.09a7.43,7.43,0,0,0,2.64-5.89,6.7,6.7,0,0,0-1.15-4.13,8.18,8.18,0,0,0-3.52-2.64c-1.76-.6-4.39-.87-8.52-.87h-9.74v15.62Z" transform="translate(-1.05 -128.91)" fill="#141515"/><path d="M677.23,864.23a42.15,42.15,0,0,0,7.38,3.51,40.65,40.65,0,0,0,10.89,1.49c5,0,9.13-1.15,12.38-3.85,3.25-2.37,5-6.5,5-11.78a15.06,15.06,0,0,0-3-9.47,40.27,40.27,0,0,0-6.76-7.37c-2.64-2.1-5.62-4.4-8.87-6.5a50.73,50.73,0,0,1-8.86-7.1,35.26,35.26,0,0,1-6.77-9.14c-2.09-3.24-3-7.37-3-12.11,0-7.64,2.36-13.6,7.1-17.12,4.4-3.85,10.62-5.61,18-5.61a53.92,53.92,0,0,1,12.38,1.15,27.62,27.62,0,0,1,8.52,3.25l-3.24,9.13a27.36,27.36,0,0,0-7.11-3,40.56,40.56,0,0,0-10.62-1.15c-5,0-8.86,1.15-11.23,3.52a13.12,13.12,0,0,0-3.52,9.14,12.27,12.27,0,0,0,3,8.52,31.7,31.7,0,0,0,6.76,7.1c2.64,2.1,5.62,4.4,8.87,6.77a55.62,55.62,0,0,1,8.86,7.38,35.68,35.68,0,0,1,6.77,9.47,27.72,27.72,0,0,1,3,12.38c0,8-2.64,14.14-7.37,18.88s-11.5,6.76-20.1,6.76c-5.61,0-10-.27-13.6-1.49a35.16,35.16,0,0,1-8.52-3.24Zm60.49-55.76h10v68.75h-10Zm-1.76-21c0-2.37.61-4.13,2.1-5.28a5.44,5.44,0,0,1,4.73-2.09,6.94,6.94,0,0,1,5,1.75,7.35,7.35,0,0,1,2.1,5.62,6,6,0,0,1-2.1,5,7.26,7.26,0,0,1-5,2.09,6.48,6.48,0,0,1-4.73-2.09,6.05,6.05,0,0,1-2.1-5Zm65.22,89.72V835.34c0-7.11-.61-12.12-2.36-15-1.49-3-4.4-4.74-8.53-4.74a12.63,12.63,0,0,0-9.13,3.52,16.1,16.1,0,0,0-5,8v50.14h-10V808.47h7.1l1.76,7.11h.61a24.88,24.88,0,0,1,7.1-6.23A24,24,0,0,1,801,807.87,13.38,13.38,0,0,1,806.6,812a25.16,25.16,0,0,1,3.51,8,51.82,51.82,0,0,1,1.15,12.72v44.58H801.18Zm63.13-3.59a24,24,0,0,1-7.65,3.86,33.6,33.6,0,0,1-9.47,1.15,24.38,24.38,0,0,1-10.89-2.37,17.63,17.63,0,0,1-7.38-7.38c-2.09-3.24-3.24-7.1-4.12-11.5a73.35,73.35,0,0,1-1.49-14.75c0-11.77,2.1-20.63,6.49-26.86,4.13-6.22,10-9.13,17.73-9.13a42,42,0,0,1,9.47.88c2.37.88,4.74,1.49,6.5,2.64l-2.64,8.52a24.41,24.41,0,0,0-12.11-3.25c-5,0-8.53,2.37-11.23,6.5-2.37,4.4-3.86,11.23-3.86,20.64a57.61,57.61,0,0,0,.88,10.62,33.29,33.29,0,0,0,2.64,8.52,20.6,20.6,0,0,0,5,5.89,12.85,12.85,0,0,0,7.65,2.1,16.07,16.07,0,0,0,6.5-1.15,14.65,14.65,0,0,0,5-3Zm49.86-1.15a22.71,22.71,0,0,1-8.25,4.74A44.49,44.49,0,0,1,895,878.71a27,27,0,0,1-11.23-2.37,20,20,0,0,1-7.65-7.38,45.66,45.66,0,0,1-4.74-11.23,76.79,76.79,0,0,1-1.48-15c0-11.77,2.36-20.64,6.49-26.86,4.4-6.23,10.62-9.13,18.27-9.13a31,31,0,0,1,7.64.88,19,19,0,0,1,6.77,3.85,20.32,20.32,0,0,1,5,8.26,44.19,44.19,0,0,1,1.76,13.6,32.82,32.82,0,0,1-.27,5c0,1.76-.28,3.52-.28,5.62H880.21a40.61,40.61,0,0,0,1.15,10.62,23,23,0,0,0,3,8.26,11.41,11.41,0,0,0,5.27,5.27,16.44,16.44,0,0,0,8,1.76,22,22,0,0,0,7.37-1.49c2.37-.88,4.4-1.76,5.62-3.24Zm-7.71-36.87c0-6.77-.88-11.78-3-15s-5-5-8.52-5a11.65,11.65,0,0,0-10,5c-2.64,3.24-4.13,8.25-4.4,15ZM963.7,868h15.63V801l1.15-8.25-4.74,6.49-11.5,9.48-5.34-6.23L984,779.18h5V868h15v9.14h-40.4V868Zm55.48-58.11c0-9.48,2.1-17.12,5.89-22.4,4.12-5.62,10.35-8.25,18.27-8.25,7.64,0,13.6,2.63,18,8.52,4.13,5.62,6.5,14.48,6.5,26a117.25,117.25,0,0,1-3,27.13,76.47,76.47,0,0,1-8,19.49c-3.52,5-7.38,9.47-12.11,12.38a37.42,37.42,0,0,1-14.75,5.89l-2.64-8a35,35,0,0,0,20.36-13.87c4.74-7.1,7.65-15.63,9.14-26a19.83,19.83,0,0,1-6.5,5.62,26.06,26.06,0,0,1-17.39,0,16.57,16.57,0,0,1-7.1-5.28,24.5,24.5,0,0,1-5-8.86,42.25,42.25,0,0,1-1.69-12.38Zm9.74-.88c0,6.49,1.49,11.5,4.13,14.75a12.18,12.18,0,0,0,10.35,5.34,16.45,16.45,0,0,0,8.87-2.37,13.64,13.64,0,0,0,5.27-5.61,15.48,15.48,0,0,0,.27-3.52v-3.25a54.28,54.28,0,0,0-.87-10,35.89,35.89,0,0,0-2.64-8.26,18.69,18.69,0,0,0-4.74-5.88,13.54,13.54,0,0,0-6.77-2.1c-4.39,0-7.64,2.1-10.35,5.61-2.3,3.79-3.52,8.8-3.52,15.3Zm52,.88c0-9.48,2.09-17.12,6.22-22.4,4.13-5.62,10-8.25,18.27-8.25,7.64,0,13.6,2.63,18,8.52,4.12,5.62,6.22,14.48,6.22,26a122.75,122.75,0,0,1-2.64,27.13,76.11,76.11,0,0,1-8,19.49,47,47,0,0,1-12.11,12.38,39.5,39.5,0,0,1-14.75,5.89l-2.64-8a37,37,0,0,0,20.36-13.87c4.74-7.1,7.65-15.63,9.14-26a19.83,19.83,0,0,1-6.5,5.62,25.9,25.9,0,0,1-9.13,1.49,27.18,27.18,0,0,1-8.53-1.49,21.28,21.28,0,0,1-7.1-5.28,24.58,24.58,0,0,1-4.74-8.86,31.85,31.85,0,0,1-2.09-12.38Zm10-.88c0,6.49,1.15,11.5,3.86,14.75a12.73,12.73,0,0,0,10.62,5.34,16.42,16.42,0,0,0,8.86-2.37,13.6,13.6,0,0,0,5.28-5.61c0-1.15.27-2.37.27-3.52v-3.25a53.42,53.42,0,0,0-.88-10,25,25,0,0,0-3-8.26,14.94,14.94,0,0,0-4.73-5.88,12.54,12.54,0,0,0-6.77-2.1,11.92,11.92,0,0,0-10,5.61c-2.3,3.79-3.52,8.8-3.52,15.3Zm96.21-7a52.1,52.1,0,0,1-2.37,15.9,118.91,118.91,0,0,1-5.61,16.24,148.27,148.27,0,0,1-8,15.63,125.34,125.34,0,0,1-8.25,13.26l-5.62,5.88v.61l7.38-1.49h23.88v9.14H1144v-4.4c1.75-2.1,3.85-4.74,6.22-8s4.74-6.77,7.1-10.63,4.74-7.64,7.11-12.11a130.4,130.4,0,0,0,6.22-13,112.48,112.48,0,0,0,4.4-13.26,46,46,0,0,0,1.76-12.38c0-4.74-.88-8.25-3.25-11.23-2.1-2.64-5.34-4.13-9.47-4.13a23.6,23.6,0,0,0-7.65,1.49,25.85,25.85,0,0,0-6.49,3.86l-3.86-7.11a20.89,20.89,0,0,1,9.14-5.27,34.88,34.88,0,0,1,11.23-1.76c6.76,0,11.77,2.09,15.36,6.22s5.34,9.68,5.34,16.51Z" transform="translate(-1.05 -128.91)" fill="#141515"/></svg>